<svg xmlns="http://www.w3.org/2000/svg" xmlns:xlink="http://www.w3.org/1999/xlink" width="1877" height="626" viewBox="0 0 1877 626">
  <defs>
    <clipPath id="clip-logo">
      <rect width="1877" height="626"/>
    </clipPath>
  </defs>
  <g id="logo" clip-path="url(#clip-logo)">
    <g id="グループ_7" data-name="グループ 7">
      <g id="楕円形_1" data-name="楕円形 1" transform="translate(5)" fill="#eaff16" stroke="#707070" stroke-width="1">
        <circle cx="279.5" cy="279.5" r="279.5" stroke="none"/>
        <circle cx="279.5" cy="279.5" r="279" fill="none"/>
      </g>
      <g id="dollar" transform="translate(4)">
        <g id="グループ_2" data-name="グループ 2">
          <g id="グループ_1" data-name="グループ 1">
            <path id="パス_1" data-name="パス 1" d="M281.178,0C128.121,0,0,123.663,0,278.99,0,433.452,127.4,560.168,281.178,560.168c155.5,0,278.99-128.288,278.99-281.178C560.168,124.791,435.389,0,281.178,0Zm0,527.455c-136.944,0-248.465-111.522-248.465-248.465,0-135.737,111.522-246.277,248.465-246.277,135.737,0,246.277,110.54,246.277,246.277C527.455,417.976,416.915,527.455,281.178,527.455Z" fill="#2a2a2a"/>
          </g>
        </g>
        <g id="グループ_4" data-name="グループ 4" transform="translate(65.645 65.645)">
          <g id="グループ_3" data-name="グループ 3">
            <path id="パス_2" data-name="パス 2" d="M275.533,60C158.048,60,60,155.267,60,273.345c0,117.607,97.534,215.533,215.533,215.533,118.189,0,213.345-98.131,213.345-215.533C488.879,155.707,393.172,60,275.533,60Zm0,396.166c-99.039,0-182.82-83.781-182.82-182.82,0-99.54,82.073-180.632,182.82-180.632,99.54,0,180.632,81.092,180.632,180.632C456.166,374.092,375.074,456.166,275.533,456.166Z" transform="translate(-60 -60)" fill="#2a2a2a"/>
          </g>
        </g>
        <g id="グループ_6" data-name="グループ 6" transform="translate(196.934 131.289)">
          <g id="グループ_5" data-name="グループ 5">
            <path id="パス_3" data-name="パス 3" d="M297.066,251.289H280.655V185.645h16.411a16.429,16.429,0,0,1,16.411,16.411,16.411,16.411,0,0,0,32.822,0,49.288,49.288,0,0,0-49.234-49.231H280.655V136.411a16.411,16.411,0,1,0-32.822,0v16.411h-18.6A49.289,49.289,0,0,0,180,202.056v32.822a49.289,49.289,0,0,0,49.234,49.234h18.6v67.833h-18.6a16.43,16.43,0,0,1-16.411-16.411,16.411,16.411,0,1,0-32.822,0,49.289,49.289,0,0,0,49.234,49.234h18.6v16.411a16.411,16.411,0,0,0,32.822,0V384.767h16.411A49.289,49.289,0,0,0,346.3,335.533V300.523A49.289,49.289,0,0,0,297.066,251.289Zm-49.234,0h-18.6a16.43,16.43,0,0,1-16.411-16.411V202.056a16.43,16.43,0,0,1,16.411-16.411h18.6Zm65.645,84.244a16.43,16.43,0,0,1-16.411,16.411H280.655V284.112h16.411a16.43,16.43,0,0,1,16.411,16.411Z" transform="translate(-180 -120)" fill="#2a2a2a"/>
          </g>
        </g>
      </g>
    </g>
    <g id="イラストver1.1" transform="matrix(0.985, 0.174, -0.174, 0.985, 271.181, 148.853)">
      <path id="ベース色" d="M302.323,42.358c-14.977-.364-26.387,6.948-37.443,14.561-9.543,6.573-22.247,14.967-29.122,24.442-5.122,7.062-8.856,16.73-14.041,25.482-1.877,3.172-4.68,6.786-7.8,11.961-3.375,5.6-6.792,18.16-12.481,8.841a60.986,60.986,0,0,1-3.12-27.042c3.7-34.7,44.344-44.884,55.124-73.845,4.53-14.977-8.154-14.805-19.241-11.441-30.417,9.236-42.861,35.924-54.6,62.4-6.365,14.358-10.864,29.1-10.4,47.323-37.942,14.681-69.212,35.2-85.286,72.805-13.667,31.972,3.677,63.881,24.962,75.405,17.114,9.267,38.582,10.219,61.884,11.441,22.778,1.2,44.7.052,65-6.24,16.719-5.18,38.389-14.717,47.843-26,3.677-4.384,10.442-15.757,11.441-21.842a66.572,66.572,0,0,0-11.441-49.4c-3.016-4.332-7.993-8.924-12.481-13-4.576-4.155-8.851-8.9-13-12.481-5.128-4.42-12.049-7.088-16.121-11.961-2.418-2.9-8.482-11.6-6.76-15.081,7.707-18.737,14.571-31.577,26.522-41.6,14.3-11.992,39.954-13.017,44.2-34.842C306.114,47.579,304.3,44.88,302.323,42.358ZM379.809,365.82c-.38,7.265-2.184,15.362-5.72,21.842-5.767,10.572-10.994,17.931-23.4,21.842-4.306,1.357-9.48,1.451-14.561,3.12-12.205,4.009-26.959,8.8-42.123,10.4-9.641,1.019-22,1-33.8,1.56-12.392.588-24.4,1.123-31.722-2.08-4.316-1.888-10.832-7.546-11.441-11.441-.77-4.93,1.758-11.68,3.64-14.041,4.134-5.185,12.767-2.73,17.681-7.281-.489-20.942,6.974-48.062,18.721-62.924,3.64-4.6,8.352-10.234,11.961-12.481,2.683-1.669,6.672-1.258,8.321-4.68-4.087-6.859-12.314-.988-15.6,2.08-14.187,13.251-21.665,29.1-27.562,52.524-1.9,7.53-4.618,12.1-4.16,21.322-13.636,2.486-20.172,12.07-24.962,23.4-5.294-7.671-.322-22.648-2.08-30.682-8.487-3.625-14.753,13.318-17.681,19.241-4.6,9.309-8.18,17.426-11.961,23.4-12.3-12.829-16.532-35.976-19.761-59.8-3.12-23.017-5.414-51.967,3.64-70.725,31.655,3.266,61.052,2.361,87.886-7.8,15.539-5.887,30.557-13.375,40.563-21.842,4.94-4.176,8.326-10.744,11.441-17.161,6.11,1.862,10.328,5.616,15.6,8.321-.02.394-.028.781-.031,1.165,8.794,5.1,16.063,11.8,22.743,18.319.4-.072.8-.152,1.209-.243a32.313,32.313,0,0,1,7.8,8.841c-.021.5-.025.976-.022,1.451,11.3,12.259,19.247,23.742,24.986,36.1a115.058,115.058,0,0,1,10.217,42.121c.083,1.414.152,2.837.142,4.257C379.8,364.538,379.816,365.157,379.809,365.82Z" transform="translate(-1.36 -1.175)" fill="#d3d3d3" fill-rule="evenodd"/>
      <g id="しっぽ_1_" transform="translate(380.531 355.857)">
        <path id="しっぽ" d="M459.865,419.889l-.006-.683c-.048-5.821-3.977-9.3-10.509-9.3-5.9,0-13.675,3.051-15.859,7.593l-.469.977.751.781c.219.228.455.446.7.66-.811,7.307-2.136,14.1-4.776,19.579a48.569,48.569,0,0,0,19.241,7.8c6.074-5.522,10.312-15,9.778-26.385.224-.18.443-.365.649-.558Z" transform="translate(-428.659 -409.909)" fill="#c9c9c9" fill-rule="evenodd"/>
        <path id="しっぽ_2_" d="M443.254,448.819c-5.688,0-11.054-3.659-14-9.55l-.751-1.5.469-1.877c2.184-8.729,9.963-14.593,15.859-14.593,6.532,0,10.461,6.679,10.509,17.867l.006,1.314-.5.9C452.178,446.175,448.063,448.819,443.254,448.819Z" transform="translate(-428.499 -411.428)" fill="#fff" fill-rule="evenodd"/>
      </g>
      <path id="足" d="M250.769,451.477s26.046,16.448,84.546-.17c0,0,45.241-27.521,54.881,3.12,3.673,11.676-14.041,15.957-14.041,15.957s-91.68,19.727-119.608,14.725S228.87,449.046,250.769,451.477Z" transform="translate(-22.149 -58.059)" fill="#fff" fill-rule="evenodd"/>
      <path id="おなか" d="M182.56,470.428s-9.48-51.817,17.636-71.058,52.5-8.32,52.5-8.32l-13.31,47.215-21.76,27.79-14.163-15.6Z" transform="translate(-14.952 -51.125)" fill="#fff" fill-rule="evenodd"/>
      <g id="耳" transform="translate(194.563 23.178)">
        <path id="パス_4" data-name="パス 4" d="M259.188,129.813c7.79-18.94,14.7-31.917,26.962-42.2,5.107-4.285,11.615-7.213,17.909-10.045,11.9-5.355,23.141-10.413,25.766-23.9l3.09.246c.537,16.215-11.831,29.557-19.252,36.067-6.655,5.838-14.125,10.983-21.35,15.959a205.522,205.522,0,0,0-17.144,12.652,49.133,49.133,0,0,0-4.972,5.3c-2.7,3.174-5.494,6.456-8.949,7.95l-3.521,1.523Z" transform="translate(-219.755 -29.716)" fill="#fff" fill-rule="evenodd"/>
        <path id="パス_5" data-name="パス 5" d="M217.714,129.514a71.121,71.121,0,0,1-3.482-29.48c2.131-20,16.135-32.085,29.678-43.77,10.757-9.282,21.913-17.828,26.531-30.233h0c-.709,8.906-2.615,16.782-6.414,23.966-.546,1.032-1.087,2.056-1.614,3.075-1.4,2.71-2.709,5.547-3.975,8.289a105.55,105.55,0,0,1-8.083,15.276,45.945,45.945,0,0,1-4.946,5.8,43.34,43.34,0,0,0-4.422,5.132,92.611,92.611,0,0,0-4.944,8.313c-.728,1.326-1.482,2.7-2.267,4.058-5.325,9.23-10.008,17.693-13.393,27.8l-.991,4.229Z" transform="translate(-213.91 -26.03)" fill="#fff" fill-rule="evenodd"/>
      </g>
      <path id="あご" d="M305.532,230.957s31.361,71.306-84.1,86.387c0,0-21.737,5.848-38.409-4.678l-.876-.073C219.868,304.993,279.672,287.7,305.532,230.957Z" transform="translate(-15.111 -30.184)" fill="#fff" fill-rule="evenodd"/>
      <g id="口" transform="translate(128.587 181.174)">
        <path id="口内色" d="M213.507,221.974c.218,15.6-13.563,31.852-30.162,33.8-6.261.733-16.553,1.305-20.281,0-5.564-1.95-13.261-12.689-13-20.8,9.61.068,16.464,4.15,24.962,2.6,13-2.371,26.777-11.248,37.963-15.6C213.086,221.381,213.507,221.683,213.507,221.974Z" transform="translate(-139.418 -210.115)" fill="#fcd9e1" fill-rule="evenodd"/>
        <path id="ノーマル" d="M172.071,264.029c-13.489,0-23.217-5.317-29.74-16.253-1.555-2.6-6.271-17.052-3.893-23.436a4.683,4.683,0,0,1,2.9-3.045,6.292,6.292,0,0,1,1.987-.356c2.008,0,3.1,1.282,3.974,2.313a5.489,5.489,0,0,0,1.868,1.639,65.6,65.6,0,0,1,10.744,1.507,41.452,41.452,0,0,0,8.376,1.133c.467,0,.936-.015,1.392-.045,12.12-.8,32.874-12.152,42.154-18.042a6.679,6.679,0,0,1,3.607-1.1,7.4,7.4,0,0,1,3.712,1.078l.374.216.111.417A39.6,39.6,0,0,1,214.88,242.1a47.344,47.344,0,0,1-30.9,20.726,64.922,64.922,0,0,1-11.907,1.2Zm-22.593-29.762c.408,7.3,7.248,16.988,12.292,18.756.939.329,2.975.721,7.344.721a114.441,114.441,0,0,0,12.473-.772c15.351-1.8,28.689-16.31,29.229-31.438-3.581,1.452-7.412,3.329-11.449,5.307-8.439,4.135-17.165,8.411-25.793,9.986a22.81,22.81,0,0,1-4.141.368,46.3,46.3,0,0,1-9.888-1.4A56.835,56.835,0,0,0,149.478,234.266Z" transform="translate(-137.781 -208.342)" fill-rule="evenodd"/>
      </g>
      <g id="目" transform="translate(118.642 151.681)">
        <g id="模様" transform="translate(0 1.727)">
          <path id="パス_6" data-name="パス 6" d="M218.354,198.245c-.182,0-.364,0-.547-.012-3.423-.163-6.639-2.654-8.193-6.347a13.03,13.03,0,0,1-.756-7.439,10.185,10.185,0,0,1,9.749-8.14l.067,0,.067.006c1.525.128,6.667.866,8.822,5a9.4,9.4,0,0,1,.975,4.813C228.168,193.6,224.265,198.245,218.354,198.245Z" transform="translate(-137.284 -176.303)" fill="#e8e8e8" fill-rule="evenodd"/>
          <path id="パス_7" data-name="パス 7" d="M137.569,205.5c-1.936.289-8.413.621-10.514-7.272a18.706,18.706,0,0,1-.525-8c.78-4.258,3.394-6.055,5.847-7.251l.113-.056.12-.018c5.6-.839,9.04,1.6,10.214,7.265a20.6,20.6,0,0,1,.007,9.476C141.757,203.542,139.326,205.233,137.569,205.5Z" transform="translate(-126.304 -177.161)" fill="#e5e5e5" fill-rule="evenodd"/>
        </g>
        <g id="ノーマル_3_" transform="translate(7.057 0)">
          <path id="パス_8" data-name="パス 8" d="M216.034,193.821c-3.531,6.292-12.507,7.868-16.121,3.12-12.678-16.641,11.6-33.2,17.161-14.041a6.9,6.9,0,0,1,.27.842C218.359,187.57,216.715,192.37,216.034,193.821Z" transform="translate(-142.697 -174.31)" fill-rule="evenodd"/>
          <path id="パス_9" data-name="パス 9" d="M136.02,201.341c-.65-2.642-1.7-4.894-1.56-8.321.827-7.15,7.275-16.116,16.121-11.961C163.52,187.138,152.661,217.982,136.02,201.341Z" transform="translate(-134.448 -175.07)" fill-rule="evenodd"/>
        </g>
      </g>
      <path id="輪郭_x3C_複合パス_x3E_" d="M172.715,433.364c-6.955,0-12.133-11.365-15.227-18.157-.348-.763-.664-1.456-.945-2.049-4.1-8.665-7.918-17.164-9.487-25.873-7.555-42-7.915-74.5-1.075-96.644-26.358-2.227-46.14-9.848-58.822-22.664-12.891-13.034-19.5-31.481-18.128-50.613,2.03-28.32,19.1-48.756,33.735-63.4,17.447-17.447,40.2-28.84,58.318-36.842.327-18.846,7.622-37.252,13.127-49.539,6.568-14.66,13.918-29.644,23.144-39.927,8.424-9.391,24.636-21.015,42.6-22.871a27.269,27.269,0,0,1,2.8-.139c6.018,0,13.7,1.894,16.356,6.053,4.9,7.685.281,22.436-1.932,28.422a89.036,89.036,0,0,1-5.524,11.612c-1.009,1.872-1.988,3.688-2.877,5.531,1.489-1.034,3.036-2.143,4.627-3.283,4.471-3.2,9.538-6.837,15.049-10.03,12.08-6.991,21.6-10.39,29.09-10.39a16.394,16.394,0,0,1,9.5,2.656c5.581,3.849,7.222,13.7,6.384,21.217-2.095,18.866-17.844,31.428-30.5,41.522l-.762.607c-3.975,3.173-8.014,6.148-11.92,9.025-9.794,7.213-19.057,14.036-25.8,22.811,2.042,5.815,7.12,9.661,12.038,13.386.763.578,1.522,1.152,2.265,1.731A144.968,144.968,0,0,1,272.7,158.39q1.155,1.165,2.326,2.338.975.975,1.935,1.929c10.271,10.222,19.141,19.049,23.946,36.2,2.378,8.483,3.435,26.908-.024,37,19.955,8.452,37.43,22.835,54.875,45.142,1.393,1.78,2.835,3.572,4.23,5.305,5.975,7.425,12.154,15.1,16.747,24.62,5.6,11.616,8.1,24.835,10.237,38.532a41.463,41.463,0,0,1,14.648-3.018c10.353,0,17.067,5.611,18.419,15.394,1.05,7.6-.344,17.145-3.73,25.524-3.516,8.7-8.294,14.251-13.108,15.222a16.011,16.011,0,0,1-3.163.315h0c-5.329,0-10.008-2.55-14.532-5.016a49.111,49.111,0,0,0-6.677-3.234c-7.581,17.273-26.911,21.807-47.347,26.6-2.229.523-4.481,1.051-6.744,1.6-2.783.677-5.572,1.449-8.524,2.266-7.545,2.088-15.346,4.248-23.941,5.052-6.782.634-14.63.683-22.219.73-5.438.034-11.061.069-16.337.315-3.172.147-5.993.219-8.626.219-13.749,0-28.626-1.7-36.218-13.753-.157.328-.307.66-.456.988-1.069,2.36-2.4,5.3-6.174,5.3-.243,0-.5-.012-.755-.038-6.028-.594-8.387-14.619-9.257-22.972-1.595,3.3-3.269,6.478-5.005,9.771-1.8,3.42-3.669,6.957-5.5,10.764-.317.659-.68,1.521-1.065,2.432-1.74,4.125-3.711,8.8-6.831,9.349A6.391,6.391,0,0,1,172.715,433.364Zm98.04-129.635a7.435,7.435,0,0,1,6.586,3.954l.429.721-.363.755c-1.367,2.836-4,3.62-6.114,4.249a11.693,11.693,0,0,0-2.788,1.079c-3.481,2.167-8.266,7.958-11.561,12.124-10.981,13.893-18.885,40.513-18.385,61.92l.016.7-.516.478c-2.672,2.475-6.112,3.1-9.438,3.706-3.23.588-6.281,1.143-8.083,3.4-1.569,1.967-4.02,8.332-3.319,12.828.488,3.123,6.342,8.423,10.525,10.252,3.734,1.634,9.2,2.395,17.187,2.395,4.484,0,9.453-.236,13.836-.444,4.124-.2,8.342-.322,12.422-.444,7.748-.231,15.065-.45,21.291-1.109,15.255-1.612,29.974-6.446,41.8-10.331a53.058,53.058,0,0,1,8.267-1.809,45.832,45.832,0,0,0,6.312-1.317c12.3-3.875,17.272-11.515,22.5-21.1a51.372,51.372,0,0,0,5.531-21.147c.573-41.015-18.375-66.806-34.948-84.693l-.126-.137-.091-.163a31.038,31.038,0,0,0-7.443-8.407l-.046-.038-.042-.042c-6.922-6.783-14.442-13.835-23.569-18.981-1.935-.994-3.733-2.126-5.473-3.22a44.611,44.611,0,0,0-8.586-4.562c-3.14,6.393-6.439,12.385-11.236,16.44-11.619,9.831-28.719,17.45-41.017,22.109-17.041,6.453-36.066,9.589-58.164,9.589a292.578,292.578,0,0,1-29.33-1.584c-8.518,18.851-5.833,48.239-3.039,68.851,2.977,21.962,6.829,44.409,17.97,57.419,2.346-3.99,4.668-8.813,7.3-14.284,1.116-2.319,2.27-4.716,3.506-7.214.363-.736.781-1.647,1.263-2.7,3.263-7.133,8.2-17.912,15.458-17.912a7.54,7.54,0,0,1,2.971.629l.739.316.172.786c.734,3.355.391,7.632.027,12.16-.435,5.418-.883,10.985.462,15.157,4.285-9.174,10.672-18.142,23.425-20.971-.114-6.219,1.212-10.413,2.611-14.837.556-1.758,1.131-3.577,1.64-5.6,6.341-25.186,14.456-40.623,28.01-53.282C260.766,308.086,265.817,303.729,270.756,303.729Zm112.785,81.157a46.824,46.824,0,0,0,16.777,6.682c5.417-5.286,10.294-15.437,8.31-28.773l-.016-.108v-.109c-.043-5.125-4.041-6.2-7.389-6.2-5.13,0-11.279,2.686-12.925,5.592C387.646,369.478,386.553,377.954,383.541,384.887ZM243.565,13.843a36.827,36.827,0,0,0-10.274,1.791c-30.438,9.242-42.76,37.029-53.631,61.544C174.3,89.259,168.9,104.25,169.394,123.829l.028,1.1-1.024.4c-44.459,17.2-70.493,39.4-84.414,71.963-12.924,30.236,2.535,61.652,24.27,73.42,16.463,8.914,37.527,10.015,59.828,11.181l1.4.073c5.279.277,10.38.418,15.163.418,18.863,0,34.989-2.156,49.3-6.59,16.8-5.206,38-14.641,47.11-25.514,3.735-4.453,10.182-15.515,11.1-21.092a64.858,64.858,0,0,0-11.181-48.259c-2.816-4.045-7.4-8.333-12.25-12.738-2.135-1.939-4.2-4-6.2-6-2.351-2.346-4.572-4.563-6.767-6.455a56.277,56.277,0,0,0-6.857-4.783c-3.4-2.133-6.918-4.338-9.443-7.359-.1-.115-9.55-11.534-6.962-16.772l.254-.514.525-.227c2.788-1.206,5.229-4.073,7.811-7.108a51.3,51.3,0,0,1,5.31-5.642,207.52,207.52,0,0,1,17.411-12.858c7.15-4.925,14.544-10.018,21.061-15.735,7.006-6.146,18.685-18.686,18.191-33.618l0-.051,0-.051a11.873,11.873,0,0,0-2.856-8.282h-.3c-13.614,0-24.126,6.475-35.486,14.3l-1.888,1.3c-9.171,6.3-20.584,14.13-26.857,22.776a103.9,103.9,0,0,0-8,14.155c-1.858,3.7-3.779,7.529-5.956,11.205-.88,1.488-1.927,3.023-3.138,4.8-1.4,2.058-2.993,4.391-4.669,7.17-.655,1.087-1.325,2.479-2.033,3.951-2.126,4.417-4.324,8.983-7.82,8.983-1.885,0-3.616-1.337-5.3-4.086l-.379-.62.23-.689c3.477-10.379,8.238-18.988,13.649-28.366.769-1.333,1.515-2.69,2.235-4a96.6,96.6,0,0,1,5.115-8.589,46.219,46.219,0,0,1,4.73-5.509,43.033,43.033,0,0,0,4.624-5.4,101.667,101.667,0,0,0,7.828-14.825c1.28-2.774,2.6-5.642,4.037-8.414.531-1.028,1.076-2.06,1.628-3.1,3.651-6.9,7.426-14.044,8.084-22.307l.013-.167.048-.161c1.23-4.067,1.171-7.051-.178-8.867C249.216,14.657,246.914,13.843,243.565,13.843Z" fill-rule="evenodd"/>
    </g>
    <path id="パス_17" data-name="パス 17" d="M123.516-163.228h120.6v-35.916H133.736l11.972-42.632-39.128-8.468-14.308,51.1H17.812v35.916H82.344L40.3-13.724,79.424-5.256Zm138.7,28.616h-116.8v35.624h116.8Zm.292,103.076c-11.68,6.132-35.332,18.98-58.984,18.98-24.236,0-55.188-14.6-57.524-62.488H106c2.336,67.452,48.764,98.112,96.944,98.112,28.908,0,56.648-9.636,81.176-24.528Z" transform="translate(573.939 330.695) rotate(-13)" fill="#212121"/>
    <path id="パス_15" data-name="パス 15" d="M127.312-183.084h134.32v-36.5H127.312v-31.244H86.14v31.244H17.228v36.5H86.14v35.332a67.4,67.4,0,0,1-1.168,11.388c-3.8-4.088-11.388-11.68-27.448-11.68-23.652,0-39.712,21.024-39.712,41.172S34.164-73,51.976-73a51.176,51.176,0,0,0,9.636-1.168c1.168,10.8,3.5,26.572,10.8,41.756C88.476.876,125.56,20.732,165.856,20.732,206.736,20.732,252,0,282.948-47.6L248.784-67.744C237.1-50.808,211.7-16.06,166.44-16.06c-16.352,0-64.824-5.548-64.532-72.416,9.636-9.052,25.4-24.236,25.4-59.276Zm82.052,17.228-27.74,26.572,44.384,44.092,27.448-26.28ZM68.328-106c-1.752,2.336-4.088,5.256-8.176,5.256-4.672,0-7.884-4.38-7.884-8.468,0-4.38,3.8-8.468,7.884-8.468C68.328-117.676,68.328-109.792,68.328-106Z" transform="translate(813.728 251.304) rotate(8)" fill="#212121"/>
    <path id="パス_11" data-name="パス 11" d="M123.516-163.228h120.6v-35.916H133.736l11.972-42.632-39.128-8.468-14.308,51.1H17.812v35.916H82.344L40.3-13.724,79.424-5.256Zm138.7,28.616h-116.8v35.624h116.8Zm.292,103.076c-11.68,6.132-35.332,18.98-58.984,18.98-24.236,0-55.188-14.6-57.524-62.488H106c2.336,67.452,48.764,98.112,96.944,98.112,28.908,0,56.648-9.636,81.176-24.528Z" transform="translate(1136.682 327.323) rotate(-11)" fill="#212121"/>
    <path id="パス_12" data-name="パス 12" d="M127.312-183.084h134.32v-36.5H127.312v-31.244H86.14v31.244H17.228v36.5H86.14v35.332a67.4,67.4,0,0,1-1.168,11.388c-3.8-4.088-11.388-11.68-27.448-11.68-23.652,0-39.712,21.024-39.712,41.172S34.164-73,51.976-73a51.176,51.176,0,0,0,9.636-1.168c1.168,10.8,3.5,26.572,10.8,41.756C88.476.876,125.56,20.732,165.856,20.732,206.736,20.732,252,0,282.948-47.6L248.784-67.744C237.1-50.808,211.7-16.06,166.44-16.06c-16.352,0-64.824-5.548-64.532-72.416,9.636-9.052,25.4-24.236,25.4-59.276Zm82.052,17.228-27.74,26.572,44.384,44.092,27.448-26.28ZM68.328-106c-1.752,2.336-4.088,5.256-8.176,5.256-4.672,0-7.884-4.38-7.884-8.468,0-4.38,3.8-8.468,7.884-8.468C68.328-117.676,68.328-109.792,68.328-106Z" transform="translate(1388.844 256.242) rotate(7)" fill="#212121"/>
    <path id="パス_16" data-name="パス 16" d="M94.608-176.66c-33.288-.876-62.488,7.3-89.352,14.892l14.016,34.456c36.792-10.8,52.852-12.264,66.868-12.848L49.932,16.644l40.3,7.008,36.5-157.1c29.2,12.848,52.852,39.42,52.852,110.084,0,8.468-.292,16.936-.584,23.652l41.172,2.336c.292-6.132.584-14.308.584-23.944,0-50.224-9.928-76.5-20.44-95.192C190.092-134.32,171.4-159.724,135.2-170.82l17.52-75.044-40.3-7.3ZM219.292-230.1l-35.624,16.352L251.7-97.528l35.624-16.352Z" transform="matrix(0.985, 0.174, -0.174, 0.985, 646.647, 548.498)" fill="none" stroke="#212121" stroke-width="12"/>
    <path id="パス_14" data-name="パス 14" d="M224.84-166.44c-9.052-29.492-24.236-57.816-43.8-86.432l-36.208,17.228c6.132,9.052,25.112,37.668,37.376,69.2H89.936v35.916H191.844c1.46,9.052,2.92,17.52,2.92,31.536,0,35.624-9.344,64.24-45.26,109.5l33,21.608c33-40,53.436-79.424,53.436-131.692a181.343,181.343,0,0,0-2.628-30.952h42.924V-166.44ZM70.664-223.672h-40V-4.38L120.3-30.952,108.332-64.824,70.664-52.852Z" transform="translate(943.728 554.304) rotate(8)" fill="none" stroke="#212121" stroke-width="12"/>
    <path id="パス_13" data-name="パス 13" d="M131.984-24.82c-17.228-10.8-30.66-19.856-41.756-34.748-19.272-25.7-29.2-58.4-29.2-92.564,0-18.688,2.92-35.624,4.964-46.136L24.82-205.86c-3.5,16.936-6.132,33.58-6.132,52.56,0,45.26,15.184,92.856,45.26,126.436C89.936,1.752,120.3,13.724,148.92,21.608l53.436-75.336L166.732-73.584Z" transform="translate(1236.662 551.418) rotate(9)" fill="none" stroke="#212121" stroke-width="12"/>
    <path id="パス_10" data-name="パス 10" d="M176.66-131.692a247.192,247.192,0,0,1,6.132,27.74c-4.088-.292-8.176-.876-14.308-.876-28.908,0-60.152,12.264-74.168,34.164L70.664-64.24V-218.416h-40v201.48L84.68-31.244c2.92,36.5,36.5,56.94,66.868,56.94,10.8,0,65.7-.876,72.708-80.3,25.7,13.14,35.04,22.484,39.712,27.156l26.572-24.82c-19.856-21.316-40.588-32.7-65.7-42.048-2.044-15.184-7.592-37.376-7.592-37.376h53.728v-32.7H207.612c-2.336-6.716-3.5-10.22-8.76-23.652h33.58V-220.46H89.06v32.412H156.8l9.344,23.652H89.06v32.7Zm9.052,63.656c-.292,15.476-2.92,58.108-33.872,58.108-13.724,0-28.324-9.928-28.324-27.74,0-18.1,12.848-32.7,42.924-32.7A86.857,86.857,0,0,1,185.712-68.036Zm65.7-186.588H218.124v33.288h33.288Zm35.332,35.332H253.456V-186h33.288Z" transform="translate(1524.662 551.418) rotate(9)" fill="none" stroke="#212121" stroke-width="12"/>
    <path id="Icon_metro-pencil" data-name="Icon metro-pencil" d="M134.475,1.928a24.427,24.427,0,0,1,19.541,39.083l-9.771,9.771-34.2-34.2,9.771-9.771a24.316,24.316,0,0,1,14.656-4.885ZM12.341,114.291,2.571,158.259l43.968-9.771L136.918,58.11l-34.2-34.2Zm99.475-56.857L43.421,125.83,35,117.409,103.4,49.014Z" transform="translate(1378.041 467.874) rotate(-68)" fill="none" stroke="#212121" stroke-width="11"/>
    <path id="多角形_1" data-name="多角形 1" d="M7.5,0,15,13H0Z" transform="matrix(0.819, 0.574, -0.574, 0.819, 1519.085, 498.874)" fill="#212121"/>
  </g>
</svg>
